<?xml version="1.0" encoding="UTF-8" standalone="no"?>
<!-- Created with Inkscape (http://www.inkscape.org/) -->

<svg
   xmlns:dc="http://purl.org/dc/elements/1.1/"
   xmlns:cc="http://creativecommons.org/ns#"
   xmlns:rdf="http://www.w3.org/1999/02/22-rdf-syntax-ns#"
   xmlns:svg="http://www.w3.org/2000/svg"
   xmlns="http://www.w3.org/2000/svg"
   xmlns:sodipodi="http://sodipodi.sourceforge.net/DTD/sodipodi-0.dtd"
   xmlns:inkscape="http://www.inkscape.org/namespaces/inkscape"
   width="256"
   height="256"
   viewBox="0 0 256 256"
   id="svg2"
   version="1.1"
   inkscape:version="0.91 r13725"
   sodipodi:docname="jandal.svg"
   inkscape:export-filename="C:\Users\mark.clearwater\Desktop\jandal.png"
   inkscape:export-xdpi="67.651039"
   inkscape:export-ydpi="67.651039">
  <defs
     id="defs4" />
  <sodipodi:namedview
     id="base"
     pagecolor="#ffffff"
     bordercolor="#666666"
     borderopacity="1.0"
     inkscape:pageopacity="0.0"
     inkscape:pageshadow="2"
     inkscape:zoom="0.49497475"
     inkscape:cx="61.707193"
     inkscape:cy="421.99587"
     inkscape:document-units="px"
     inkscape:current-layer="layer1"
     showgrid="false"
     inkscape:window-width="1600"
     inkscape:window-height="847"
     inkscape:window-x="-8"
     inkscape:window-y="-8"
     inkscape:window-maximized="1"
     units="px" />
  <metadata
     id="metadata7">
    <rdf:RDF>
      <cc:Work
         rdf:about="">
        <dc:format>image/svg+xml</dc:format>
        <dc:type
           rdf:resource="http://purl.org/dc/dcmitype/StillImage" />
        <dc:title></dc:title>
      </cc:Work>
    </rdf:RDF>
  </metadata>
  <g
     inkscape:label="Layer 1"
     inkscape:groupmode="layer"
     id="layer1"
     transform="translate(0,-796.36218)">
    <g
       id="g4135"
       transform="translate(-2.8779616,1.3223907)">
      <path
         inkscape:connector-curvature="0"
         id="path3347"
         d="m 85.034706,892.62884 c -6.3607,-29.0839 -7.6758,-66.60415 21.611964,-84.03698 20.57689,-18.30904 64.44822,-21.5813 70.25476,12.48561 11.85898,44.02161 -12.48133,86.56534 -9.44938,130.63214 -2.6995,25.97487 12.66827,52.46029 4.51954,77.44279 -11.39927,24.0263 -52.05548,31.648 -65.49096,5.5279 -19.013134,-34.3972 -3.90764,-75.1558 -15.094564,-111.58358 -2.17298,-10.14373 -4.62529,-20.23363 -6.35136,-30.46788 z"
         style="fill:#000000;fill-rule:evenodd;stroke:none;stroke-width:1px;stroke-linecap:butt;stroke-linejoin:miter;stroke-opacity:1" />
      <path
         sodipodi:nodetypes="ccccccccccccccccccccc"
         inkscape:connector-curvature="0"
         id="path3365"
         d="m 115.83451,977.04312 c -7.37655,2.22308 -13.17497,-4.77747 -15.72179,-10.83701 -6.296224,-14.89925 -14.896654,-29.8143 -14.066924,-46.55822 -0.30811,-10.88568 -3.52337,-23.27829 3.73999,-32.7115 8.86046,-15.16631 16.734084,-31.96028 31.639434,-42.23976 6.42317,-5.08214 13.44462,-12.07367 22.31773,-10.94203 9.52205,3.0648 13.25831,13.29063 19.37043,20.25877 9.90586,13.65302 18.59013,29.86994 17.14221,47.27329 1.48699,15.61844 -5.79246,30.21018 -7.13961,45.55775 -2.16928,11.06321 -5.9157,25.88959 -15.57288,32.78511 -5.77269,1.90447 -9.22486,-7.1611 -7.57186,-12.16335 0.54728,-6.25934 4.50832,-10.9355 7.63962,-15.7919 6.85387,-10.46218 9.65375,-21.83432 14.34656,-33.18161 2.44344,-6.64959 2.35308,-14.87104 -1.72964,-21.0471 -3.91795,-8.42919 -5.76655,-18.31353 -12.97635,-24.78312 -4.80652,-7.74278 -10.79305,-15.15879 -18.93949,-19.55315 -16.41772,8.10991 -30.13205,21.74771 -37.73012,38.46181 -4.596524,7.22493 -11.934774,14.51046 -10.149224,23.85489 3.03297,11.75144 9.669744,22.25555 17.643384,31.22868 3.81588,7.65563 7.80463,15.29537 11.04376,23.19131 0.64037,2.70368 0.0813,6.71028 -3.28523,7.19714 z"
         style="fill:#ffffff;fill-rule:evenodd;stroke:none;stroke-width:1px;stroke-linecap:butt;stroke-linejoin:miter;stroke-opacity:1" />
    </g>
  </g>
</svg>
